<svg width="1928" height="1088" viewBox="0 0 1928 1088" fill="none" xmlns="http://www.w3.org/2000/svg">
<rect width="1928" height="1088" fill="#F5F5F5"/>
<g filter="url(#filter0_d_0_1)">
<path d="M4 0H1924V534V1080H4V0Z" fill="#8626D1"/>
<path d="M4 0H1924V534V1080H4V0Z" fill="url(#paint0_linear_0_1)" fill-opacity="0.26"/>
</g>
<path d="M1923.5 373C1779.24 373 1636.4 391.274 1503.12 426.779C1369.85 462.284 1248.75 514.324 1146.74 579.929C1044.74 645.534 963.823 723.418 908.618 809.134C853.414 894.851 825 986.721 825 1079.5L1923.5 1079.5L1923.5 373Z" fill="#202020"/>
<path d="M426 0C426 39.2652 415.072 78.146 393.839 114.422C372.606 150.699 341.485 183.66 302.253 211.425C263.02 239.19 216.444 261.214 165.184 276.24C113.924 291.266 58.9835 299 3.49998 299L3.5 0H426Z" fill="#202020"/>
<defs>
<filter id="filter0_d_0_1" x="0" y="0" width="1928" height="1088" filterUnits="userSpaceOnUse" color-interpolation-filters="sRGB">
<feFlood flood-opacity="0" result="BackgroundImageFix"/>
<feColorMatrix in="SourceAlpha" type="matrix" values="0 0 0 0 0 0 0 0 0 0 0 0 0 0 0 0 0 0 127 0" result="hardAlpha"/>
<feOffset dy="4"/>
<feGaussianBlur stdDeviation="2"/>
<feComposite in2="hardAlpha" operator="out"/>
<feColorMatrix type="matrix" values="0 0 0 0 0 0 0 0 0 0 0 0 0 0 0 0 0 0 0.25 0"/>
<feBlend mode="normal" in2="BackgroundImageFix" result="effect1_dropShadow_0_1"/>
<feBlend mode="normal" in="SourceGraphic" in2="effect1_dropShadow_0_1" result="shape"/>
</filter>
<linearGradient id="paint0_linear_0_1" x1="1893.5" y1="39.0001" x2="4.00007" y2="1080" gradientUnits="userSpaceOnUse">
<stop offset="0.127935" stop-color="#FF5C00"/>
<stop offset="0.458527" stop-color="#0085FF"/>
<stop offset="0.843439" stop-color="#14FF00"/>
</linearGradient>
</defs>
</svg>
